<mxfile host="app.diagrams.net" modified="2023-06-08T05:07:12.241Z" agent="Mozilla/5.0 (Windows NT 10.0; Win64; x64; rv:109.0) Gecko/20100101 Firefox/113.0" etag="DLOqidf1epnXD1EB9Dmg" version="21.3.7" type="github">
  <diagram name="Page-1" id="8n2fAxBShtkgeZEnvYDV">
    <mxGraphModel dx="3344" dy="1282" grid="1" gridSize="10" guides="1" tooltips="1" connect="1" arrows="1" fold="1" page="1" pageScale="1" pageWidth="1100" pageHeight="1700" math="0" shadow="0">
      <root>
        <mxCell id="0" />
        <mxCell id="1" parent="0" />
        <mxCell id="-rtBCofy2EuOzevjXCgD-1" value="&lt;div&gt;create user account&lt;/div&gt;" style="ellipse;whiteSpace=wrap;html=1;" vertex="1" parent="1">
          <mxGeometry x="410" y="20" width="120" height="80" as="geometry" />
        </mxCell>
        <mxCell id="-rtBCofy2EuOzevjXCgD-2" value="&lt;div&gt;login&lt;/div&gt;" style="ellipse;whiteSpace=wrap;html=1;" vertex="1" parent="1">
          <mxGeometry x="410" y="140" width="120" height="80" as="geometry" />
        </mxCell>
        <mxCell id="-rtBCofy2EuOzevjXCgD-3" value="verify password" style="ellipse;whiteSpace=wrap;html=1;" vertex="1" parent="1">
          <mxGeometry x="720" y="70" width="120" height="80" as="geometry" />
        </mxCell>
        <mxCell id="-rtBCofy2EuOzevjXCgD-4" value="display error message" style="ellipse;whiteSpace=wrap;html=1;" vertex="1" parent="1">
          <mxGeometry x="720" y="180" width="120" height="80" as="geometry" />
        </mxCell>
        <mxCell id="-rtBCofy2EuOzevjXCgD-5" value="view availability" style="ellipse;whiteSpace=wrap;html=1;" vertex="1" parent="1">
          <mxGeometry x="410" y="360" width="120" height="80" as="geometry" />
        </mxCell>
        <mxCell id="-rtBCofy2EuOzevjXCgD-6" value="reserve room" style="ellipse;whiteSpace=wrap;html=1;" vertex="1" parent="1">
          <mxGeometry x="410" y="540" width="120" height="80" as="geometry" />
        </mxCell>
        <mxCell id="-rtBCofy2EuOzevjXCgD-7" value="reserve event" style="ellipse;whiteSpace=wrap;html=1;" vertex="1" parent="1">
          <mxGeometry x="410" y="650" width="120" height="80" as="geometry" />
        </mxCell>
        <mxCell id="-rtBCofy2EuOzevjXCgD-8" value="reserve resturent" style="ellipse;whiteSpace=wrap;html=1;" vertex="1" parent="1">
          <mxGeometry x="410" y="760" width="120" height="80" as="geometry" />
        </mxCell>
        <mxCell id="-rtBCofy2EuOzevjXCgD-9" value="reserve tour package" style="ellipse;whiteSpace=wrap;html=1;" vertex="1" parent="1">
          <mxGeometry x="410" y="870" width="120" height="80" as="geometry" />
        </mxCell>
        <mxCell id="-rtBCofy2EuOzevjXCgD-10" value="manage and update room" style="ellipse;whiteSpace=wrap;html=1;" vertex="1" parent="1">
          <mxGeometry x="410" y="1340" width="120" height="80" as="geometry" />
        </mxCell>
        <mxCell id="-rtBCofy2EuOzevjXCgD-11" value="view customer status" style="ellipse;whiteSpace=wrap;html=1;" vertex="1" parent="1">
          <mxGeometry x="410" y="1240" width="120" height="80" as="geometry" />
        </mxCell>
        <mxCell id="-rtBCofy2EuOzevjXCgD-12" value="check availability" style="ellipse;whiteSpace=wrap;html=1;" vertex="1" parent="1">
          <mxGeometry x="710" y="720" width="120" height="80" as="geometry" />
        </mxCell>
        <mxCell id="-rtBCofy2EuOzevjXCgD-14" value="cancel reservation" style="ellipse;whiteSpace=wrap;html=1;" vertex="1" parent="1">
          <mxGeometry x="410" y="1050" width="120" height="80" as="geometry" />
        </mxCell>
        <mxCell id="-rtBCofy2EuOzevjXCgD-15" value="verify customer information" style="ellipse;whiteSpace=wrap;html=1;" vertex="1" parent="1">
          <mxGeometry x="720" y="960" width="120" height="80" as="geometry" />
        </mxCell>
        <mxCell id="-rtBCofy2EuOzevjXCgD-16" value="generate cancellation recipt" style="ellipse;whiteSpace=wrap;html=1;" vertex="1" parent="1">
          <mxGeometry x="730" y="1090" width="120" height="80" as="geometry" />
        </mxCell>
        <mxCell id="-rtBCofy2EuOzevjXCgD-21" value="manage hotel details" style="ellipse;whiteSpace=wrap;html=1;" vertex="1" parent="1">
          <mxGeometry x="410" y="1450" width="120" height="80" as="geometry" />
        </mxCell>
        <mxCell id="-rtBCofy2EuOzevjXCgD-22" value="modify reservation" style="ellipse;whiteSpace=wrap;html=1;" vertex="1" parent="1">
          <mxGeometry x="410" y="1150" width="120" height="80" as="geometry" />
        </mxCell>
        <mxCell id="-rtBCofy2EuOzevjXCgD-23" value="view hotel details" style="ellipse;whiteSpace=wrap;html=1;" vertex="1" parent="1">
          <mxGeometry x="410" y="250" width="120" height="80" as="geometry" />
        </mxCell>
        <mxCell id="-rtBCofy2EuOzevjXCgD-24" value="generate financial reports" style="ellipse;whiteSpace=wrap;html=1;" vertex="1" parent="1">
          <mxGeometry x="410" y="1770" width="120" height="80" as="geometry" />
        </mxCell>
        <mxCell id="-rtBCofy2EuOzevjXCgD-25" value="check in" style="ellipse;whiteSpace=wrap;html=1;" vertex="1" parent="1">
          <mxGeometry x="410" y="1560" width="120" height="80" as="geometry" />
        </mxCell>
        <mxCell id="-rtBCofy2EuOzevjXCgD-26" value="check out" style="ellipse;whiteSpace=wrap;html=1;" vertex="1" parent="1">
          <mxGeometry x="410" y="1670" width="120" height="80" as="geometry" />
        </mxCell>
        <mxCell id="-rtBCofy2EuOzevjXCgD-27" value="manage inventory" style="ellipse;whiteSpace=wrap;html=1;" vertex="1" parent="1">
          <mxGeometry x="410" y="1870" width="120" height="80" as="geometry" />
        </mxCell>
        <mxCell id="-rtBCofy2EuOzevjXCgD-28" value="manage room availability" style="ellipse;whiteSpace=wrap;html=1;" vertex="1" parent="1">
          <mxGeometry x="410" y="1970" width="120" height="80" as="geometry" />
        </mxCell>
        <mxCell id="-rtBCofy2EuOzevjXCgD-29" value="manage staff" style="ellipse;whiteSpace=wrap;html=1;" vertex="1" parent="1">
          <mxGeometry x="410" y="2070" width="120" height="80" as="geometry" />
        </mxCell>
        <mxCell id="-rtBCofy2EuOzevjXCgD-30" value="generate reports" style="ellipse;whiteSpace=wrap;html=1;" vertex="1" parent="1">
          <mxGeometry x="410" y="2180" width="120" height="80" as="geometry" />
        </mxCell>
        <mxCell id="-rtBCofy2EuOzevjXCgD-31" value="manage payments" style="ellipse;whiteSpace=wrap;html=1;" vertex="1" parent="1">
          <mxGeometry x="410" y="2280" width="120" height="80" as="geometry" />
        </mxCell>
        <mxCell id="-rtBCofy2EuOzevjXCgD-32" value="manage customer details" style="ellipse;whiteSpace=wrap;html=1;" vertex="1" parent="1">
          <mxGeometry x="410" y="2380" width="120" height="80" as="geometry" />
        </mxCell>
        <mxCell id="-rtBCofy2EuOzevjXCgD-33" value="manage user accounts" style="ellipse;whiteSpace=wrap;html=1;" vertex="1" parent="1">
          <mxGeometry x="410" y="2480" width="120" height="80" as="geometry" />
        </mxCell>
        <mxCell id="-rtBCofy2EuOzevjXCgD-34" value="manage room type" style="ellipse;whiteSpace=wrap;html=1;" vertex="1" parent="1">
          <mxGeometry x="710" y="490" width="120" height="80" as="geometry" />
        </mxCell>
        <mxCell id="-rtBCofy2EuOzevjXCgD-35" value="use facility" style="ellipse;whiteSpace=wrap;html=1;" vertex="1" parent="1">
          <mxGeometry x="410" y="960" width="120" height="80" as="geometry" />
        </mxCell>
        <mxCell id="-rtBCofy2EuOzevjXCgD-37" value="request service" style="ellipse;whiteSpace=wrap;html=1;" vertex="1" parent="1">
          <mxGeometry x="410" y="450" width="120" height="80" as="geometry" />
        </mxCell>
        <mxCell id="-rtBCofy2EuOzevjXCgD-38" value="manage service" style="ellipse;whiteSpace=wrap;html=1;" vertex="1" parent="1">
          <mxGeometry x="650" y="400" width="120" height="80" as="geometry" />
        </mxCell>
        <mxCell id="-rtBCofy2EuOzevjXCgD-40" value="Customer" style="shape=umlActor;verticalLabelPosition=bottom;verticalAlign=top;html=1;outlineConnect=0;" vertex="1" parent="1">
          <mxGeometry x="-250" y="260" width="70" height="110" as="geometry" />
        </mxCell>
        <mxCell id="-rtBCofy2EuOzevjXCgD-42" value="admin" style="shape=umlActor;verticalLabelPosition=bottom;verticalAlign=top;html=1;outlineConnect=0;" vertex="1" parent="1">
          <mxGeometry x="-160" y="1170" width="70" height="110" as="geometry" />
        </mxCell>
        <mxCell id="-rtBCofy2EuOzevjXCgD-43" value="staff" style="shape=umlActor;verticalLabelPosition=bottom;verticalAlign=top;html=1;outlineConnect=0;" vertex="1" parent="1">
          <mxGeometry x="1440" y="635" width="70" height="110" as="geometry" />
        </mxCell>
        <mxCell id="-rtBCofy2EuOzevjXCgD-54" value="" style="endArrow=open;dashed=1;endFill=0;endSize=12;html=1;rounded=0;entryX=-0.025;entryY=0.638;entryDx=0;entryDy=0;entryPerimeter=0;" edge="1" parent="1" target="-rtBCofy2EuOzevjXCgD-3">
          <mxGeometry width="160" relative="1" as="geometry">
            <mxPoint x="520" y="160" as="sourcePoint" />
            <mxPoint x="680" y="160" as="targetPoint" />
          </mxGeometry>
        </mxCell>
        <mxCell id="-rtBCofy2EuOzevjXCgD-56" value="&amp;lt;include&amp;gt;" style="edgeLabel;html=1;align=center;verticalAlign=middle;resizable=0;points=[];" vertex="1" connectable="0" parent="-rtBCofy2EuOzevjXCgD-54">
          <mxGeometry x="-0.1777" relative="1" as="geometry">
            <mxPoint as="offset" />
          </mxGeometry>
        </mxCell>
        <mxCell id="-rtBCofy2EuOzevjXCgD-55" value="" style="endArrow=open;dashed=1;endFill=0;endSize=12;html=1;rounded=0;entryX=-0.025;entryY=0.638;entryDx=0;entryDy=0;entryPerimeter=0;exitX=0;exitY=0.5;exitDx=0;exitDy=0;" edge="1" parent="1" source="-rtBCofy2EuOzevjXCgD-4">
          <mxGeometry width="160" relative="1" as="geometry">
            <mxPoint x="333" y="229" as="sourcePoint" />
            <mxPoint x="530" y="190" as="targetPoint" />
          </mxGeometry>
        </mxCell>
        <mxCell id="-rtBCofy2EuOzevjXCgD-57" value="&amp;lt;exclude&amp;gt;" style="edgeLabel;html=1;align=center;verticalAlign=middle;resizable=0;points=[];" vertex="1" connectable="0" parent="-rtBCofy2EuOzevjXCgD-55">
          <mxGeometry x="0.1162" relative="1" as="geometry">
            <mxPoint as="offset" />
          </mxGeometry>
        </mxCell>
        <mxCell id="-rtBCofy2EuOzevjXCgD-60" value="" style="endArrow=open;dashed=1;endFill=0;endSize=12;html=1;rounded=0;entryX=0.025;entryY=0.687;entryDx=0;entryDy=0;entryPerimeter=0;" edge="1" parent="1" target="-rtBCofy2EuOzevjXCgD-38">
          <mxGeometry width="160" relative="1" as="geometry">
            <mxPoint x="523" y="469" as="sourcePoint" />
            <mxPoint x="680" y="430" as="targetPoint" />
          </mxGeometry>
        </mxCell>
        <mxCell id="-rtBCofy2EuOzevjXCgD-61" value="&amp;lt;include&amp;gt;" style="edgeLabel;html=1;align=center;verticalAlign=middle;resizable=0;points=[];" vertex="1" connectable="0" parent="-rtBCofy2EuOzevjXCgD-60">
          <mxGeometry x="-0.1777" relative="1" as="geometry">
            <mxPoint as="offset" />
          </mxGeometry>
        </mxCell>
        <mxCell id="-rtBCofy2EuOzevjXCgD-62" value="" style="endArrow=open;dashed=1;endFill=0;endSize=12;html=1;rounded=0;entryX=0;entryY=0.5;entryDx=0;entryDy=0;" edge="1" parent="1" target="-rtBCofy2EuOzevjXCgD-34">
          <mxGeometry width="160" relative="1" as="geometry">
            <mxPoint x="530" y="569" as="sourcePoint" />
            <mxPoint x="687" y="530" as="targetPoint" />
          </mxGeometry>
        </mxCell>
        <mxCell id="-rtBCofy2EuOzevjXCgD-63" value="&amp;lt;include&amp;gt;" style="edgeLabel;html=1;align=center;verticalAlign=middle;resizable=0;points=[];" vertex="1" connectable="0" parent="-rtBCofy2EuOzevjXCgD-62">
          <mxGeometry x="-0.1777" relative="1" as="geometry">
            <mxPoint as="offset" />
          </mxGeometry>
        </mxCell>
        <mxCell id="-rtBCofy2EuOzevjXCgD-64" value="" style="endArrow=open;dashed=1;endFill=0;endSize=12;html=1;rounded=0;exitX=0.926;exitY=0.746;exitDx=0;exitDy=0;exitPerimeter=0;" edge="1" parent="1" source="-rtBCofy2EuOzevjXCgD-6" target="-rtBCofy2EuOzevjXCgD-12">
          <mxGeometry width="160" relative="1" as="geometry">
            <mxPoint x="530" y="589" as="sourcePoint" />
            <mxPoint x="710" y="550" as="targetPoint" />
          </mxGeometry>
        </mxCell>
        <mxCell id="-rtBCofy2EuOzevjXCgD-65" value="&amp;lt;include&amp;gt;" style="edgeLabel;html=1;align=center;verticalAlign=middle;resizable=0;points=[];" vertex="1" connectable="0" parent="-rtBCofy2EuOzevjXCgD-64">
          <mxGeometry x="-0.1777" relative="1" as="geometry">
            <mxPoint as="offset" />
          </mxGeometry>
        </mxCell>
        <mxCell id="-rtBCofy2EuOzevjXCgD-66" value="" style="endArrow=open;dashed=1;endFill=0;endSize=12;html=1;rounded=0;" edge="1" parent="1">
          <mxGeometry width="160" relative="1" as="geometry">
            <mxPoint x="530.5" y="689" as="sourcePoint" />
            <mxPoint x="710" y="750" as="targetPoint" />
          </mxGeometry>
        </mxCell>
        <mxCell id="-rtBCofy2EuOzevjXCgD-67" value="&amp;lt;include&amp;gt;" style="edgeLabel;html=1;align=center;verticalAlign=middle;resizable=0;points=[];" vertex="1" connectable="0" parent="-rtBCofy2EuOzevjXCgD-66">
          <mxGeometry x="-0.1777" relative="1" as="geometry">
            <mxPoint as="offset" />
          </mxGeometry>
        </mxCell>
        <mxCell id="-rtBCofy2EuOzevjXCgD-68" value="" style="endArrow=open;dashed=1;endFill=0;endSize=12;html=1;rounded=0;" edge="1" parent="1" target="-rtBCofy2EuOzevjXCgD-12">
          <mxGeometry width="160" relative="1" as="geometry">
            <mxPoint x="530" y="800" as="sourcePoint" />
            <mxPoint x="729" y="942" as="targetPoint" />
          </mxGeometry>
        </mxCell>
        <mxCell id="-rtBCofy2EuOzevjXCgD-69" value="&amp;lt;include&amp;gt;" style="edgeLabel;html=1;align=center;verticalAlign=middle;resizable=0;points=[];" vertex="1" connectable="0" parent="-rtBCofy2EuOzevjXCgD-68">
          <mxGeometry x="-0.1777" relative="1" as="geometry">
            <mxPoint as="offset" />
          </mxGeometry>
        </mxCell>
        <mxCell id="-rtBCofy2EuOzevjXCgD-70" value="" style="endArrow=open;dashed=1;endFill=0;endSize=12;html=1;rounded=0;" edge="1" parent="1">
          <mxGeometry width="160" relative="1" as="geometry">
            <mxPoint x="530.5" y="908" as="sourcePoint" />
            <mxPoint x="720" y="790" as="targetPoint" />
          </mxGeometry>
        </mxCell>
        <mxCell id="-rtBCofy2EuOzevjXCgD-71" value="&amp;lt;include&amp;gt;" style="edgeLabel;html=1;align=center;verticalAlign=middle;resizable=0;points=[];" vertex="1" connectable="0" parent="-rtBCofy2EuOzevjXCgD-70">
          <mxGeometry x="-0.1777" relative="1" as="geometry">
            <mxPoint as="offset" />
          </mxGeometry>
        </mxCell>
        <mxCell id="-rtBCofy2EuOzevjXCgD-72" value="" style="endArrow=open;dashed=1;endFill=0;endSize=12;html=1;rounded=0;entryX=0;entryY=0.588;entryDx=0;entryDy=0;entryPerimeter=0;" edge="1" parent="1" target="-rtBCofy2EuOzevjXCgD-15">
          <mxGeometry width="160" relative="1" as="geometry">
            <mxPoint x="530.5" y="1088" as="sourcePoint" />
            <mxPoint x="720" y="970" as="targetPoint" />
          </mxGeometry>
        </mxCell>
        <mxCell id="-rtBCofy2EuOzevjXCgD-73" value="&amp;lt;include&amp;gt;" style="edgeLabel;html=1;align=center;verticalAlign=middle;resizable=0;points=[];" vertex="1" connectable="0" parent="-rtBCofy2EuOzevjXCgD-72">
          <mxGeometry x="-0.1777" relative="1" as="geometry">
            <mxPoint as="offset" />
          </mxGeometry>
        </mxCell>
        <mxCell id="-rtBCofy2EuOzevjXCgD-74" value="" style="endArrow=open;endFill=1;endSize=12;html=1;rounded=0;entryX=-0.017;entryY=0.588;entryDx=0;entryDy=0;entryPerimeter=0;exitX=1;exitY=0.3333333333333333;exitDx=0;exitDy=0;exitPerimeter=0;" edge="1" parent="1" source="-rtBCofy2EuOzevjXCgD-40" target="-rtBCofy2EuOzevjXCgD-1">
          <mxGeometry width="160" relative="1" as="geometry">
            <mxPoint x="-50" y="320" as="sourcePoint" />
            <mxPoint x="110" y="314.5" as="targetPoint" />
          </mxGeometry>
        </mxCell>
        <mxCell id="-rtBCofy2EuOzevjXCgD-75" value="" style="endArrow=open;endFill=1;endSize=12;html=1;rounded=0;entryX=0;entryY=0.5;entryDx=0;entryDy=0;exitX=1;exitY=0.3333333333333333;exitDx=0;exitDy=0;exitPerimeter=0;" edge="1" parent="1" source="-rtBCofy2EuOzevjXCgD-40" target="-rtBCofy2EuOzevjXCgD-2">
          <mxGeometry width="160" relative="1" as="geometry">
            <mxPoint x="-48" y="320" as="sourcePoint" />
            <mxPoint x="410" y="100" as="targetPoint" />
          </mxGeometry>
        </mxCell>
        <mxCell id="-rtBCofy2EuOzevjXCgD-76" value="" style="endArrow=open;endFill=1;endSize=12;html=1;rounded=0;entryX=0;entryY=0.5;entryDx=0;entryDy=0;exitX=1;exitY=0.3333333333333333;exitDx=0;exitDy=0;exitPerimeter=0;" edge="1" parent="1" source="-rtBCofy2EuOzevjXCgD-40">
          <mxGeometry width="160" relative="1" as="geometry">
            <mxPoint x="-48" y="320" as="sourcePoint" />
            <mxPoint x="410" y="290" as="targetPoint" />
          </mxGeometry>
        </mxCell>
        <mxCell id="-rtBCofy2EuOzevjXCgD-77" value="" style="endArrow=open;endFill=1;endSize=12;html=1;rounded=0;entryX=0;entryY=0.5;entryDx=0;entryDy=0;exitX=1;exitY=0.3333333333333333;exitDx=0;exitDy=0;exitPerimeter=0;" edge="1" parent="1" source="-rtBCofy2EuOzevjXCgD-40">
          <mxGeometry width="160" relative="1" as="geometry">
            <mxPoint x="-48" y="430" as="sourcePoint" />
            <mxPoint x="410" y="400" as="targetPoint" />
          </mxGeometry>
        </mxCell>
        <mxCell id="-rtBCofy2EuOzevjXCgD-78" value="" style="endArrow=open;endFill=1;endSize=12;html=1;rounded=0;entryX=0;entryY=0.5;entryDx=0;entryDy=0;exitX=1;exitY=0.3333333333333333;exitDx=0;exitDy=0;exitPerimeter=0;" edge="1" parent="1" source="-rtBCofy2EuOzevjXCgD-40" target="-rtBCofy2EuOzevjXCgD-37">
          <mxGeometry width="160" relative="1" as="geometry">
            <mxPoint x="-50" y="320" as="sourcePoint" />
            <mxPoint x="420" y="410" as="targetPoint" />
          </mxGeometry>
        </mxCell>
        <mxCell id="-rtBCofy2EuOzevjXCgD-79" value="" style="endArrow=open;endFill=1;endSize=12;html=1;rounded=0;entryX=0;entryY=0.5;entryDx=0;entryDy=0;exitX=1;exitY=0.3333333333333333;exitDx=0;exitDy=0;exitPerimeter=0;" edge="1" parent="1" source="-rtBCofy2EuOzevjXCgD-40">
          <mxGeometry width="160" relative="1" as="geometry">
            <mxPoint x="-50" y="320" as="sourcePoint" />
            <mxPoint x="410" y="575" as="targetPoint" />
          </mxGeometry>
        </mxCell>
        <mxCell id="-rtBCofy2EuOzevjXCgD-80" value="" style="endArrow=open;endFill=1;endSize=12;html=1;rounded=0;entryX=0;entryY=0.5;entryDx=0;entryDy=0;exitX=1;exitY=0.3333333333333333;exitDx=0;exitDy=0;exitPerimeter=0;" edge="1" parent="1" source="-rtBCofy2EuOzevjXCgD-40">
          <mxGeometry width="160" relative="1" as="geometry">
            <mxPoint x="-50" y="320" as="sourcePoint" />
            <mxPoint x="410" y="685" as="targetPoint" />
          </mxGeometry>
        </mxCell>
        <mxCell id="-rtBCofy2EuOzevjXCgD-81" value="" style="endArrow=open;endFill=1;endSize=12;html=1;rounded=0;entryX=0;entryY=0.5;entryDx=0;entryDy=0;exitX=1;exitY=0.3333333333333333;exitDx=0;exitDy=0;exitPerimeter=0;" edge="1" parent="1" source="-rtBCofy2EuOzevjXCgD-40">
          <mxGeometry width="160" relative="1" as="geometry">
            <mxPoint x="-50" y="320" as="sourcePoint" />
            <mxPoint x="410" y="795" as="targetPoint" />
          </mxGeometry>
        </mxCell>
        <mxCell id="-rtBCofy2EuOzevjXCgD-82" value="" style="endArrow=open;endFill=1;endSize=12;html=1;rounded=0;entryX=0;entryY=0.5;entryDx=0;entryDy=0;exitX=1;exitY=0.3333333333333333;exitDx=0;exitDy=0;exitPerimeter=0;" edge="1" parent="1" source="-rtBCofy2EuOzevjXCgD-40">
          <mxGeometry width="160" relative="1" as="geometry">
            <mxPoint x="-50" y="320" as="sourcePoint" />
            <mxPoint x="410" y="905" as="targetPoint" />
          </mxGeometry>
        </mxCell>
        <mxCell id="-rtBCofy2EuOzevjXCgD-83" value="" style="endArrow=open;endFill=1;endSize=12;html=1;rounded=0;entryX=-0.017;entryY=0.425;entryDx=0;entryDy=0;entryPerimeter=0;exitX=1;exitY=0.3333333333333333;exitDx=0;exitDy=0;exitPerimeter=0;" edge="1" parent="1" source="-rtBCofy2EuOzevjXCgD-40" target="-rtBCofy2EuOzevjXCgD-35">
          <mxGeometry width="160" relative="1" as="geometry">
            <mxPoint x="-40" y="330" as="sourcePoint" />
            <mxPoint x="380" y="930" as="targetPoint" />
          </mxGeometry>
        </mxCell>
        <mxCell id="-rtBCofy2EuOzevjXCgD-84" value="" style="endArrow=open;endFill=1;endSize=12;html=1;rounded=0;entryX=0;entryY=0.375;entryDx=0;entryDy=0;entryPerimeter=0;exitX=1;exitY=0.3333333333333333;exitDx=0;exitDy=0;exitPerimeter=0;" edge="1" parent="1" source="-rtBCofy2EuOzevjXCgD-40" target="-rtBCofy2EuOzevjXCgD-14">
          <mxGeometry width="160" relative="1" as="geometry">
            <mxPoint x="-30" y="340" as="sourcePoint" />
            <mxPoint x="418" y="1004" as="targetPoint" />
          </mxGeometry>
        </mxCell>
        <mxCell id="-rtBCofy2EuOzevjXCgD-85" value="" style="endArrow=open;endFill=1;endSize=12;html=1;rounded=0;entryX=-0.008;entryY=0.375;entryDx=0;entryDy=0;entryPerimeter=0;exitX=1;exitY=0.3333333333333333;exitDx=0;exitDy=0;exitPerimeter=0;" edge="1" parent="1" source="-rtBCofy2EuOzevjXCgD-40" target="-rtBCofy2EuOzevjXCgD-22">
          <mxGeometry width="160" relative="1" as="geometry">
            <mxPoint x="-50" y="320" as="sourcePoint" />
            <mxPoint x="420" y="1090" as="targetPoint" />
          </mxGeometry>
        </mxCell>
        <mxCell id="-rtBCofy2EuOzevjXCgD-86" value="" style="endArrow=open;endFill=1;endSize=12;html=1;rounded=0;entryX=0;entryY=0.375;entryDx=0;entryDy=0;entryPerimeter=0;exitX=1;exitY=0.3333333333333333;exitDx=0;exitDy=0;exitPerimeter=0;" edge="1" parent="1" source="-rtBCofy2EuOzevjXCgD-40" target="-rtBCofy2EuOzevjXCgD-25">
          <mxGeometry width="160" relative="1" as="geometry">
            <mxPoint x="-50" y="320" as="sourcePoint" />
            <mxPoint x="340" y="1400" as="targetPoint" />
          </mxGeometry>
        </mxCell>
        <mxCell id="-rtBCofy2EuOzevjXCgD-87" value="" style="endArrow=open;endFill=1;endSize=12;html=1;rounded=0;entryX=0.008;entryY=0.338;entryDx=0;entryDy=0;entryPerimeter=0;exitX=1;exitY=0.3333333333333333;exitDx=0;exitDy=0;exitPerimeter=0;" edge="1" parent="1" source="-rtBCofy2EuOzevjXCgD-40" target="-rtBCofy2EuOzevjXCgD-26">
          <mxGeometry width="160" relative="1" as="geometry">
            <mxPoint x="-50" y="320" as="sourcePoint" />
            <mxPoint x="400" y="1670" as="targetPoint" />
          </mxGeometry>
        </mxCell>
        <mxCell id="-rtBCofy2EuOzevjXCgD-88" value="" style="endArrow=open;endFill=1;endSize=12;html=1;rounded=0;" edge="1" parent="1" source="-rtBCofy2EuOzevjXCgD-43" target="-rtBCofy2EuOzevjXCgD-2">
          <mxGeometry width="160" relative="1" as="geometry">
            <mxPoint x="1430" y="800" as="sourcePoint" />
            <mxPoint x="1178" y="200" as="targetPoint" />
            <Array as="points">
              <mxPoint x="1030" y="360" />
            </Array>
          </mxGeometry>
        </mxCell>
        <mxCell id="-rtBCofy2EuOzevjXCgD-89" value="" style="endArrow=open;endFill=1;endSize=12;html=1;rounded=0;entryX=1;entryY=0.5;entryDx=0;entryDy=0;exitX=0;exitY=0.3333333333333333;exitDx=0;exitDy=0;exitPerimeter=0;" edge="1" parent="1" source="-rtBCofy2EuOzevjXCgD-43" target="-rtBCofy2EuOzevjXCgD-5">
          <mxGeometry width="160" relative="1" as="geometry">
            <mxPoint x="1440" y="698" as="sourcePoint" />
            <mxPoint x="518" y="230" as="targetPoint" />
            <Array as="points">
              <mxPoint x="830" y="390" />
            </Array>
          </mxGeometry>
        </mxCell>
        <mxCell id="-rtBCofy2EuOzevjXCgD-90" value="" style="endArrow=open;endFill=1;endSize=12;html=1;rounded=0;entryX=1;entryY=0.5;entryDx=0;entryDy=0;entryPerimeter=0;exitX=0;exitY=0.3333333333333333;exitDx=0;exitDy=0;exitPerimeter=0;" edge="1" parent="1" source="-rtBCofy2EuOzevjXCgD-43" target="-rtBCofy2EuOzevjXCgD-38">
          <mxGeometry width="160" relative="1" as="geometry">
            <mxPoint x="1462" y="730" as="sourcePoint" />
            <mxPoint x="540" y="262" as="targetPoint" />
          </mxGeometry>
        </mxCell>
        <mxCell id="-rtBCofy2EuOzevjXCgD-91" value="" style="endArrow=open;endFill=1;endSize=12;html=1;rounded=0;entryX=1;entryY=0.5;entryDx=0;entryDy=0;entryPerimeter=0;exitX=0;exitY=0.3333333333333333;exitDx=0;exitDy=0;exitPerimeter=0;" edge="1" parent="1" source="-rtBCofy2EuOzevjXCgD-43">
          <mxGeometry width="160" relative="1" as="geometry">
            <mxPoint x="1490" y="782" as="sourcePoint" />
            <mxPoint x="820" y="550" as="targetPoint" />
          </mxGeometry>
        </mxCell>
        <mxCell id="-rtBCofy2EuOzevjXCgD-92" value="" style="endArrow=open;endFill=1;endSize=12;html=1;rounded=0;entryX=1;entryY=0.625;entryDx=0;entryDy=0;entryPerimeter=0;" edge="1" parent="1" target="-rtBCofy2EuOzevjXCgD-6">
          <mxGeometry width="160" relative="1" as="geometry">
            <mxPoint x="1440" y="670" as="sourcePoint" />
            <mxPoint x="790" y="608" as="targetPoint" />
          </mxGeometry>
        </mxCell>
        <mxCell id="-rtBCofy2EuOzevjXCgD-93" value="" style="endArrow=open;endFill=1;endSize=12;html=1;rounded=0;entryX=1;entryY=0.625;entryDx=0;entryDy=0;entryPerimeter=0;" edge="1" parent="1">
          <mxGeometry width="160" relative="1" as="geometry">
            <mxPoint x="1440" y="670" as="sourcePoint" />
            <mxPoint x="530" y="680" as="targetPoint" />
          </mxGeometry>
        </mxCell>
        <mxCell id="-rtBCofy2EuOzevjXCgD-94" value="" style="endArrow=open;endFill=1;endSize=12;html=1;rounded=0;entryX=1;entryY=0.625;entryDx=0;entryDy=0;entryPerimeter=0;exitX=0;exitY=0.3333333333333333;exitDx=0;exitDy=0;exitPerimeter=0;" edge="1" parent="1" source="-rtBCofy2EuOzevjXCgD-43">
          <mxGeometry width="160" relative="1" as="geometry">
            <mxPoint x="1430" y="770" as="sourcePoint" />
            <mxPoint x="520" y="780" as="targetPoint" />
            <Array as="points">
              <mxPoint x="790" y="690" />
            </Array>
          </mxGeometry>
        </mxCell>
        <mxCell id="-rtBCofy2EuOzevjXCgD-95" value="" style="endArrow=open;endFill=1;endSize=12;html=1;rounded=0;entryX=0.995;entryY=0.665;entryDx=0;entryDy=0;entryPerimeter=0;" edge="1" parent="1" target="-rtBCofy2EuOzevjXCgD-9">
          <mxGeometry width="160" relative="1" as="geometry">
            <mxPoint x="1440" y="670" as="sourcePoint" />
            <mxPoint x="540" y="890" as="targetPoint" />
          </mxGeometry>
        </mxCell>
        <mxCell id="-rtBCofy2EuOzevjXCgD-96" value="" style="endArrow=open;endFill=1;endSize=12;html=1;rounded=0;exitX=0;exitY=0.3333333333333333;exitDx=0;exitDy=0;exitPerimeter=0;" edge="1" parent="1" source="-rtBCofy2EuOzevjXCgD-43" target="-rtBCofy2EuOzevjXCgD-14">
          <mxGeometry width="160" relative="1" as="geometry">
            <mxPoint x="1450" y="720" as="sourcePoint" />
            <mxPoint x="539" y="973" as="targetPoint" />
            <Array as="points">
              <mxPoint x="870" y="870" />
            </Array>
          </mxGeometry>
        </mxCell>
        <mxCell id="-rtBCofy2EuOzevjXCgD-97" value="" style="endArrow=open;endFill=1;endSize=12;html=1;rounded=0;" edge="1" parent="1" target="-rtBCofy2EuOzevjXCgD-22">
          <mxGeometry width="160" relative="1" as="geometry">
            <mxPoint x="1440" y="670" as="sourcePoint" />
            <mxPoint x="510" y="1123" as="targetPoint" />
            <Array as="points">
              <mxPoint x="1040" y="950" />
            </Array>
          </mxGeometry>
        </mxCell>
        <mxCell id="-rtBCofy2EuOzevjXCgD-98" value="" style="endArrow=open;dashed=1;endFill=0;endSize=12;html=1;rounded=0;entryX=-0.025;entryY=0.638;entryDx=0;entryDy=0;entryPerimeter=0;exitX=0;exitY=0.5;exitDx=0;exitDy=0;" edge="1" parent="1" source="-rtBCofy2EuOzevjXCgD-16">
          <mxGeometry width="160" relative="1" as="geometry">
            <mxPoint x="720" y="1130" as="sourcePoint" />
            <mxPoint x="530" y="1100" as="targetPoint" />
          </mxGeometry>
        </mxCell>
        <mxCell id="-rtBCofy2EuOzevjXCgD-99" value="&amp;lt;exclude&amp;gt;" style="edgeLabel;html=1;align=center;verticalAlign=middle;resizable=0;points=[];" vertex="1" connectable="0" parent="-rtBCofy2EuOzevjXCgD-98">
          <mxGeometry x="0.1162" relative="1" as="geometry">
            <mxPoint as="offset" />
          </mxGeometry>
        </mxCell>
        <mxCell id="-rtBCofy2EuOzevjXCgD-100" value="" style="endArrow=open;endFill=1;endSize=12;html=1;rounded=0;entryX=1;entryY=0.5;entryDx=0;entryDy=0;" edge="1" parent="1" target="-rtBCofy2EuOzevjXCgD-11">
          <mxGeometry width="160" relative="1" as="geometry">
            <mxPoint x="1440" y="670" as="sourcePoint" />
            <mxPoint x="560" y="1263" as="targetPoint" />
            <Array as="points">
              <mxPoint x="990" y="1110" />
            </Array>
          </mxGeometry>
        </mxCell>
        <mxCell id="-rtBCofy2EuOzevjXCgD-101" value="" style="endArrow=open;endFill=1;endSize=12;html=1;rounded=0;" edge="1" parent="1">
          <mxGeometry width="160" relative="1" as="geometry">
            <mxPoint x="1440" y="670" as="sourcePoint" />
            <mxPoint x="530" y="1370" as="targetPoint" />
            <Array as="points">
              <mxPoint x="1020" y="1140" />
            </Array>
          </mxGeometry>
        </mxCell>
        <mxCell id="-rtBCofy2EuOzevjXCgD-102" value="" style="endArrow=open;endFill=1;endSize=12;html=1;rounded=0;entryX=0.995;entryY=0.665;entryDx=0;entryDy=0;entryPerimeter=0;" edge="1" parent="1">
          <mxGeometry width="160" relative="1" as="geometry">
            <mxPoint x="1440" y="670" as="sourcePoint" />
            <mxPoint x="529" y="1473" as="targetPoint" />
            <Array as="points">
              <mxPoint x="1040" y="1200" />
            </Array>
          </mxGeometry>
        </mxCell>
        <mxCell id="-rtBCofy2EuOzevjXCgD-103" value="" style="endArrow=open;endFill=1;endSize=12;html=1;rounded=0;entryX=0.966;entryY=0.246;entryDx=0;entryDy=0;entryPerimeter=0;" edge="1" parent="1" target="-rtBCofy2EuOzevjXCgD-25">
          <mxGeometry width="160" relative="1" as="geometry">
            <mxPoint x="1440" y="670" as="sourcePoint" />
            <mxPoint x="900" y="1320" as="targetPoint" />
            <Array as="points">
              <mxPoint x="1010" y="1280" />
            </Array>
          </mxGeometry>
        </mxCell>
        <mxCell id="-rtBCofy2EuOzevjXCgD-104" value="" style="endArrow=open;endFill=1;endSize=12;html=1;rounded=0;entryX=1;entryY=0.5;entryDx=0;entryDy=0;" edge="1" parent="1" target="-rtBCofy2EuOzevjXCgD-26">
          <mxGeometry width="160" relative="1" as="geometry">
            <mxPoint x="1440" y="670" as="sourcePoint" />
            <mxPoint x="599" y="1298" as="targetPoint" />
            <Array as="points">
              <mxPoint x="1080" y="1260" />
            </Array>
          </mxGeometry>
        </mxCell>
        <mxCell id="-rtBCofy2EuOzevjXCgD-105" value="" style="endArrow=open;endFill=1;endSize=12;html=1;rounded=0;entryX=1;entryY=0.5;entryDx=0;entryDy=0;" edge="1" parent="1" target="-rtBCofy2EuOzevjXCgD-27">
          <mxGeometry width="160" relative="1" as="geometry">
            <mxPoint x="1440" y="670" as="sourcePoint" />
            <mxPoint x="950" y="1530" as="targetPoint" />
            <Array as="points">
              <mxPoint x="1110" y="1300" />
            </Array>
          </mxGeometry>
        </mxCell>
        <mxCell id="-rtBCofy2EuOzevjXCgD-106" value="" style="endArrow=open;endFill=1;endSize=12;html=1;rounded=0;entryX=1;entryY=0.3;entryDx=0;entryDy=0;entryPerimeter=0;" edge="1" parent="1" target="-rtBCofy2EuOzevjXCgD-28">
          <mxGeometry width="160" relative="1" as="geometry">
            <mxPoint x="1440" y="670" as="sourcePoint" />
            <mxPoint x="540" y="1920" as="targetPoint" />
            <Array as="points">
              <mxPoint x="1120" y="1310" />
            </Array>
          </mxGeometry>
        </mxCell>
        <mxCell id="-rtBCofy2EuOzevjXCgD-108" value="" style="endArrow=open;endFill=1;endSize=12;html=1;rounded=0;entryX=0.917;entryY=0.25;entryDx=0;entryDy=0;entryPerimeter=0;" edge="1" parent="1" target="-rtBCofy2EuOzevjXCgD-30">
          <mxGeometry width="160" relative="1" as="geometry">
            <mxPoint x="1440" y="670" as="sourcePoint" />
            <mxPoint x="600" y="2084" as="targetPoint" />
            <Array as="points">
              <mxPoint x="1190" y="1400" />
            </Array>
          </mxGeometry>
        </mxCell>
        <mxCell id="-rtBCofy2EuOzevjXCgD-109" value="" style="endArrow=open;endFill=1;endSize=12;html=1;rounded=0;entryX=1;entryY=0.5;entryDx=0;entryDy=0;exitX=0;exitY=0.3333333333333333;exitDx=0;exitDy=0;exitPerimeter=0;" edge="1" parent="1" source="-rtBCofy2EuOzevjXCgD-43" target="-rtBCofy2EuOzevjXCgD-31">
          <mxGeometry width="160" relative="1" as="geometry">
            <mxPoint x="1450" y="680" as="sourcePoint" />
            <mxPoint x="530" y="2210" as="targetPoint" />
            <Array as="points">
              <mxPoint x="1200" y="1410" />
            </Array>
          </mxGeometry>
        </mxCell>
        <mxCell id="-rtBCofy2EuOzevjXCgD-110" value="" style="endArrow=open;endFill=1;endSize=12;html=1;rounded=0;entryX=1;entryY=0.5;entryDx=0;entryDy=0;exitX=0;exitY=0.3333333333333333;exitDx=0;exitDy=0;exitPerimeter=0;" edge="1" parent="1" source="-rtBCofy2EuOzevjXCgD-43" target="-rtBCofy2EuOzevjXCgD-32">
          <mxGeometry width="160" relative="1" as="geometry">
            <mxPoint x="1450" y="682" as="sourcePoint" />
            <mxPoint x="540" y="2330" as="targetPoint" />
            <Array as="points">
              <mxPoint x="1210" y="1420" />
            </Array>
          </mxGeometry>
        </mxCell>
        <mxCell id="-rtBCofy2EuOzevjXCgD-111" value="" style="endArrow=open;endFill=1;endSize=12;html=1;rounded=0;entryX=0.967;entryY=0.325;entryDx=0;entryDy=0;exitX=0;exitY=0.3333333333333333;exitDx=0;exitDy=0;exitPerimeter=0;entryPerimeter=0;" edge="1" parent="1" source="-rtBCofy2EuOzevjXCgD-43" target="-rtBCofy2EuOzevjXCgD-33">
          <mxGeometry width="160" relative="1" as="geometry">
            <mxPoint x="1450" y="682" as="sourcePoint" />
            <mxPoint x="540" y="2430" as="targetPoint" />
            <Array as="points">
              <mxPoint x="1220" y="1430" />
            </Array>
          </mxGeometry>
        </mxCell>
        <mxCell id="-rtBCofy2EuOzevjXCgD-112" value="" style="endArrow=open;endFill=1;endSize=12;html=1;rounded=0;entryX=0;entryY=0.5;entryDx=0;entryDy=0;exitX=1;exitY=0.3333333333333333;exitDx=0;exitDy=0;exitPerimeter=0;" edge="1" parent="1" source="-rtBCofy2EuOzevjXCgD-40" target="-rtBCofy2EuOzevjXCgD-11">
          <mxGeometry width="160" relative="1" as="geometry">
            <mxPoint x="-50" y="320" as="sourcePoint" />
            <mxPoint x="421" y="1707" as="targetPoint" />
          </mxGeometry>
        </mxCell>
        <mxCell id="-rtBCofy2EuOzevjXCgD-113" value="" style="endArrow=open;endFill=1;endSize=12;html=1;rounded=0;exitX=0;exitY=0.3333333333333333;exitDx=0;exitDy=0;exitPerimeter=0;entryX=1;entryY=0.5;entryDx=0;entryDy=0;" edge="1" parent="1" source="-rtBCofy2EuOzevjXCgD-43" target="-rtBCofy2EuOzevjXCgD-23">
          <mxGeometry width="160" relative="1" as="geometry">
            <mxPoint x="1440" y="745" as="sourcePoint" />
            <mxPoint x="524" y="278" as="targetPoint" />
            <Array as="points">
              <mxPoint x="1030" y="441" />
            </Array>
          </mxGeometry>
        </mxCell>
        <mxCell id="-rtBCofy2EuOzevjXCgD-114" value="" style="endArrow=open;endFill=1;endSize=12;html=1;rounded=0;entryX=0.033;entryY=0.725;entryDx=0;entryDy=0;entryPerimeter=0;exitX=1;exitY=0.3333333333333333;exitDx=0;exitDy=0;exitPerimeter=0;" edge="1" parent="1" source="-rtBCofy2EuOzevjXCgD-42" target="-rtBCofy2EuOzevjXCgD-1">
          <mxGeometry width="160" relative="1" as="geometry">
            <mxPoint x="-30" y="1170" as="sourcePoint" />
            <mxPoint x="428" y="917" as="targetPoint" />
          </mxGeometry>
        </mxCell>
        <mxCell id="-rtBCofy2EuOzevjXCgD-115" value="" style="endArrow=open;endFill=1;endSize=12;html=1;rounded=0;entryX=0;entryY=1;entryDx=0;entryDy=0;exitX=1;exitY=0.3333333333333333;exitDx=0;exitDy=0;exitPerimeter=0;" edge="1" parent="1" source="-rtBCofy2EuOzevjXCgD-42" target="-rtBCofy2EuOzevjXCgD-2">
          <mxGeometry width="160" relative="1" as="geometry">
            <mxPoint x="-80" y="1217" as="sourcePoint" />
            <mxPoint x="424" y="88" as="targetPoint" />
          </mxGeometry>
        </mxCell>
        <mxCell id="-rtBCofy2EuOzevjXCgD-116" value="" style="endArrow=open;endFill=1;endSize=12;html=1;rounded=0;entryX=0;entryY=1;entryDx=0;entryDy=0;" edge="1" parent="1" target="-rtBCofy2EuOzevjXCgD-23">
          <mxGeometry width="160" relative="1" as="geometry">
            <mxPoint x="-90" y="1210" as="sourcePoint" />
            <mxPoint x="438" y="218" as="targetPoint" />
          </mxGeometry>
        </mxCell>
        <mxCell id="-rtBCofy2EuOzevjXCgD-117" value="" style="endArrow=open;endFill=1;endSize=12;html=1;rounded=0;entryX=0;entryY=1;entryDx=0;entryDy=0;" edge="1" parent="1" target="-rtBCofy2EuOzevjXCgD-5">
          <mxGeometry width="160" relative="1" as="geometry">
            <mxPoint x="-90" y="1210" as="sourcePoint" />
            <mxPoint x="438" y="328" as="targetPoint" />
          </mxGeometry>
        </mxCell>
        <mxCell id="-rtBCofy2EuOzevjXCgD-118" value="" style="endArrow=open;endFill=1;endSize=12;html=1;rounded=0;entryX=0;entryY=1;entryDx=0;entryDy=0;" edge="1" parent="1" target="-rtBCofy2EuOzevjXCgD-37">
          <mxGeometry width="160" relative="1" as="geometry">
            <mxPoint x="-90" y="1210" as="sourcePoint" />
            <mxPoint x="438" y="438" as="targetPoint" />
          </mxGeometry>
        </mxCell>
        <mxCell id="-rtBCofy2EuOzevjXCgD-119" value="" style="endArrow=open;endFill=1;endSize=12;html=1;rounded=0;entryX=0;entryY=1;entryDx=0;entryDy=0;" edge="1" parent="1" target="-rtBCofy2EuOzevjXCgD-6">
          <mxGeometry width="160" relative="1" as="geometry">
            <mxPoint x="-90" y="1210" as="sourcePoint" />
            <mxPoint x="438" y="528" as="targetPoint" />
          </mxGeometry>
        </mxCell>
        <mxCell id="-rtBCofy2EuOzevjXCgD-120" value="" style="endArrow=open;endFill=1;endSize=12;html=1;rounded=0;entryX=0;entryY=1;entryDx=0;entryDy=0;" edge="1" parent="1" target="-rtBCofy2EuOzevjXCgD-7">
          <mxGeometry width="160" relative="1" as="geometry">
            <mxPoint x="-90" y="1210" as="sourcePoint" />
            <mxPoint x="438" y="618" as="targetPoint" />
          </mxGeometry>
        </mxCell>
        <mxCell id="-rtBCofy2EuOzevjXCgD-121" value="" style="endArrow=open;endFill=1;endSize=12;html=1;rounded=0;entryX=0;entryY=1;entryDx=0;entryDy=0;exitX=1;exitY=0.3333333333333333;exitDx=0;exitDy=0;exitPerimeter=0;" edge="1" parent="1" source="-rtBCofy2EuOzevjXCgD-42" target="-rtBCofy2EuOzevjXCgD-8">
          <mxGeometry width="160" relative="1" as="geometry">
            <mxPoint x="-80" y="1220" as="sourcePoint" />
            <mxPoint x="438" y="728" as="targetPoint" />
          </mxGeometry>
        </mxCell>
        <mxCell id="-rtBCofy2EuOzevjXCgD-122" value="" style="endArrow=open;endFill=1;endSize=12;html=1;rounded=0;entryX=0;entryY=1;entryDx=0;entryDy=0;exitX=1;exitY=0.3333333333333333;exitDx=0;exitDy=0;exitPerimeter=0;" edge="1" parent="1" source="-rtBCofy2EuOzevjXCgD-42" target="-rtBCofy2EuOzevjXCgD-9">
          <mxGeometry width="160" relative="1" as="geometry">
            <mxPoint x="-80" y="1217" as="sourcePoint" />
            <mxPoint x="438" y="838" as="targetPoint" />
          </mxGeometry>
        </mxCell>
        <mxCell id="-rtBCofy2EuOzevjXCgD-123" value="" style="endArrow=open;endFill=1;endSize=12;html=1;rounded=0;entryX=0;entryY=1;entryDx=0;entryDy=0;exitX=1;exitY=0.3333333333333333;exitDx=0;exitDy=0;exitPerimeter=0;" edge="1" parent="1" source="-rtBCofy2EuOzevjXCgD-42" target="-rtBCofy2EuOzevjXCgD-14">
          <mxGeometry width="160" relative="1" as="geometry">
            <mxPoint x="-80" y="1217" as="sourcePoint" />
            <mxPoint x="438" y="948" as="targetPoint" />
          </mxGeometry>
        </mxCell>
        <mxCell id="-rtBCofy2EuOzevjXCgD-124" value="" style="endArrow=open;endFill=1;endSize=12;html=1;rounded=0;entryX=0;entryY=1;entryDx=0;entryDy=0;exitX=1;exitY=0.3333333333333333;exitDx=0;exitDy=0;exitPerimeter=0;" edge="1" parent="1" source="-rtBCofy2EuOzevjXCgD-42" target="-rtBCofy2EuOzevjXCgD-22">
          <mxGeometry width="160" relative="1" as="geometry">
            <mxPoint x="-80" y="1217" as="sourcePoint" />
            <mxPoint x="438" y="1128" as="targetPoint" />
          </mxGeometry>
        </mxCell>
        <mxCell id="-rtBCofy2EuOzevjXCgD-125" value="" style="endArrow=open;endFill=1;endSize=12;html=1;rounded=0;entryX=0.033;entryY=0.675;entryDx=0;entryDy=0;exitX=1;exitY=0.3333333333333333;exitDx=0;exitDy=0;exitPerimeter=0;entryPerimeter=0;" edge="1" parent="1" source="-rtBCofy2EuOzevjXCgD-42" target="-rtBCofy2EuOzevjXCgD-11">
          <mxGeometry width="160" relative="1" as="geometry">
            <mxPoint x="-80" y="1217" as="sourcePoint" />
            <mxPoint x="438" y="1228" as="targetPoint" />
          </mxGeometry>
        </mxCell>
        <mxCell id="-rtBCofy2EuOzevjXCgD-126" value="" style="endArrow=open;endFill=1;endSize=12;html=1;rounded=0;entryX=0;entryY=0.5;entryDx=0;entryDy=0;exitX=1;exitY=0.3333333333333333;exitDx=0;exitDy=0;exitPerimeter=0;" edge="1" parent="1" source="-rtBCofy2EuOzevjXCgD-42" target="-rtBCofy2EuOzevjXCgD-10">
          <mxGeometry width="160" relative="1" as="geometry">
            <mxPoint x="-70" y="1227" as="sourcePoint" />
            <mxPoint x="448" y="1238" as="targetPoint" />
          </mxGeometry>
        </mxCell>
        <mxCell id="-rtBCofy2EuOzevjXCgD-127" value="" style="endArrow=open;endFill=1;endSize=12;html=1;rounded=0;entryX=0;entryY=0.5;entryDx=0;entryDy=0;exitX=1;exitY=0.3333333333333333;exitDx=0;exitDy=0;exitPerimeter=0;" edge="1" parent="1" source="-rtBCofy2EuOzevjXCgD-42" target="-rtBCofy2EuOzevjXCgD-21">
          <mxGeometry width="160" relative="1" as="geometry">
            <mxPoint x="-80" y="1217" as="sourcePoint" />
            <mxPoint x="420" y="1390" as="targetPoint" />
          </mxGeometry>
        </mxCell>
        <mxCell id="-rtBCofy2EuOzevjXCgD-128" value="" style="endArrow=open;endFill=1;endSize=12;html=1;rounded=0;entryX=0;entryY=0.5;entryDx=0;entryDy=0;exitX=1;exitY=0.3333333333333333;exitDx=0;exitDy=0;exitPerimeter=0;" edge="1" parent="1" source="-rtBCofy2EuOzevjXCgD-42" target="-rtBCofy2EuOzevjXCgD-25">
          <mxGeometry width="160" relative="1" as="geometry">
            <mxPoint x="-80" y="1217" as="sourcePoint" />
            <mxPoint x="420" y="1500" as="targetPoint" />
          </mxGeometry>
        </mxCell>
        <mxCell id="-rtBCofy2EuOzevjXCgD-129" value="" style="endArrow=open;endFill=1;endSize=12;html=1;rounded=0;entryX=0.033;entryY=0.675;entryDx=0;entryDy=0;exitX=1;exitY=0.3333333333333333;exitDx=0;exitDy=0;exitPerimeter=0;entryPerimeter=0;" edge="1" parent="1" source="-rtBCofy2EuOzevjXCgD-42" target="-rtBCofy2EuOzevjXCgD-26">
          <mxGeometry width="160" relative="1" as="geometry">
            <mxPoint x="-80" y="1217" as="sourcePoint" />
            <mxPoint x="420" y="1610" as="targetPoint" />
          </mxGeometry>
        </mxCell>
        <mxCell id="-rtBCofy2EuOzevjXCgD-130" value="" style="endArrow=open;endFill=1;endSize=12;html=1;rounded=0;entryX=0;entryY=0.5;entryDx=0;entryDy=0;exitX=1;exitY=0.3333333333333333;exitDx=0;exitDy=0;exitPerimeter=0;" edge="1" parent="1" source="-rtBCofy2EuOzevjXCgD-42" target="-rtBCofy2EuOzevjXCgD-24">
          <mxGeometry width="160" relative="1" as="geometry">
            <mxPoint x="-80" y="1217" as="sourcePoint" />
            <mxPoint x="424" y="1734" as="targetPoint" />
          </mxGeometry>
        </mxCell>
        <mxCell id="-rtBCofy2EuOzevjXCgD-131" value="" style="endArrow=open;endFill=1;endSize=12;html=1;rounded=0;entryX=0;entryY=0.5;entryDx=0;entryDy=0;exitX=1;exitY=0.3333333333333333;exitDx=0;exitDy=0;exitPerimeter=0;" edge="1" parent="1" source="-rtBCofy2EuOzevjXCgD-42" target="-rtBCofy2EuOzevjXCgD-27">
          <mxGeometry width="160" relative="1" as="geometry">
            <mxPoint x="-80" y="1217" as="sourcePoint" />
            <mxPoint x="420" y="1820" as="targetPoint" />
          </mxGeometry>
        </mxCell>
        <mxCell id="-rtBCofy2EuOzevjXCgD-132" value="" style="endArrow=open;endFill=1;endSize=12;html=1;rounded=0;entryX=0;entryY=0.5;entryDx=0;entryDy=0;exitX=1;exitY=0.3333333333333333;exitDx=0;exitDy=0;exitPerimeter=0;" edge="1" parent="1" source="-rtBCofy2EuOzevjXCgD-42" target="-rtBCofy2EuOzevjXCgD-28">
          <mxGeometry width="160" relative="1" as="geometry">
            <mxPoint x="-70" y="1227" as="sourcePoint" />
            <mxPoint x="430" y="1830" as="targetPoint" />
          </mxGeometry>
        </mxCell>
        <mxCell id="-rtBCofy2EuOzevjXCgD-133" value="" style="endArrow=open;endFill=1;endSize=12;html=1;rounded=0;entryX=0;entryY=0.5;entryDx=0;entryDy=0;exitX=1;exitY=0.3333333333333333;exitDx=0;exitDy=0;exitPerimeter=0;" edge="1" parent="1" source="-rtBCofy2EuOzevjXCgD-42" target="-rtBCofy2EuOzevjXCgD-29">
          <mxGeometry width="160" relative="1" as="geometry">
            <mxPoint x="-80" y="1217" as="sourcePoint" />
            <mxPoint x="420" y="2020" as="targetPoint" />
          </mxGeometry>
        </mxCell>
        <mxCell id="-rtBCofy2EuOzevjXCgD-134" value="" style="endArrow=open;endFill=1;endSize=12;html=1;rounded=0;entryX=0;entryY=0.5;entryDx=0;entryDy=0;exitX=1;exitY=0.3333333333333333;exitDx=0;exitDy=0;exitPerimeter=0;" edge="1" parent="1" source="-rtBCofy2EuOzevjXCgD-42" target="-rtBCofy2EuOzevjXCgD-30">
          <mxGeometry width="160" relative="1" as="geometry">
            <mxPoint x="-80" y="1217" as="sourcePoint" />
            <mxPoint x="420" y="2120" as="targetPoint" />
          </mxGeometry>
        </mxCell>
        <mxCell id="-rtBCofy2EuOzevjXCgD-135" value="" style="endArrow=open;endFill=1;endSize=12;html=1;rounded=0;entryX=0;entryY=0.5;entryDx=0;entryDy=0;exitX=1;exitY=0.3333333333333333;exitDx=0;exitDy=0;exitPerimeter=0;" edge="1" parent="1" source="-rtBCofy2EuOzevjXCgD-42" target="-rtBCofy2EuOzevjXCgD-31">
          <mxGeometry width="160" relative="1" as="geometry">
            <mxPoint x="-80" y="1217" as="sourcePoint" />
            <mxPoint x="420" y="2230" as="targetPoint" />
          </mxGeometry>
        </mxCell>
        <mxCell id="-rtBCofy2EuOzevjXCgD-136" value="" style="endArrow=open;endFill=1;endSize=12;html=1;rounded=0;entryX=0;entryY=0.5;entryDx=0;entryDy=0;exitX=1;exitY=0.3333333333333333;exitDx=0;exitDy=0;exitPerimeter=0;" edge="1" parent="1" source="-rtBCofy2EuOzevjXCgD-42" target="-rtBCofy2EuOzevjXCgD-32">
          <mxGeometry width="160" relative="1" as="geometry">
            <mxPoint x="-80" y="1217" as="sourcePoint" />
            <mxPoint x="420" y="2330" as="targetPoint" />
          </mxGeometry>
        </mxCell>
        <mxCell id="-rtBCofy2EuOzevjXCgD-137" value="" style="endArrow=open;endFill=1;endSize=12;html=1;rounded=0;entryX=0;entryY=0.5;entryDx=0;entryDy=0;exitX=1;exitY=0.3333333333333333;exitDx=0;exitDy=0;exitPerimeter=0;" edge="1" parent="1" source="-rtBCofy2EuOzevjXCgD-42" target="-rtBCofy2EuOzevjXCgD-33">
          <mxGeometry width="160" relative="1" as="geometry">
            <mxPoint x="-80" y="1217" as="sourcePoint" />
            <mxPoint x="420" y="2430" as="targetPoint" />
          </mxGeometry>
        </mxCell>
      </root>
    </mxGraphModel>
  </diagram>
</mxfile>
